<svg width="400" height="400" viewBox="0 0 400 400" xmlns="http://www.w3.org/2000/svg">
<g opacity="1">

<circle cx="200" cy="170" r="140" fill="none" stroke="#3B82F6" stroke-width="1"/>
<circle cx="200" cy="170" r="108" fill="none" stroke="#6366F1" stroke-width="0.7" stroke-dasharray="3 5"/>
<circle cx="200" cy="170" r="76" fill="none" stroke="#3B82F6" stroke-width="0.8"/>
<circle cx="200" cy="170" r="42" fill="none" stroke="#6366F1" stroke-width="0.6" stroke-dasharray="3 5"/>

<g transform="translate(200,170)">

<rect x="-30" y="-34" width="60" height="42" rx="6" fill="#3B82F6"/>
<rect x="-23" y="-27" width="12" height="8" rx="2" fill="#3B82F6" opacity="0.5"/>
<rect x="-7" y="-27" width="12" height="8" rx="2" fill="#3B82F6" opacity="0.5"/>
<rect x="11" y="-27" width="12" height="8" rx="2" fill="#3B82F6" opacity="0.5"/>
<rect x="-23" y="-15" width="46" height="5" rx="2" fill="#3B82F6" opacity="0.4"/>
<rect x="-23" y="-6" width="30" height="5" rx="2" fill="#3B82F6" opacity="0.4"/>
<circle cx="18" cy="-4" r="4" fill="#10B981"/>

<line x1="0" y1="12" x2="-78" y2="74" stroke="#3B82F6" stroke-width="1.2"/>
<line x1="0" y1="12" x2="0" y2="86" stroke="#3B82F6" stroke-width="1.2"/>
<line x1="0" y1="12" x2="78" y2="74" stroke="#3B82F6" stroke-width="1.2"/>
<line x1="0" y1="12" x2="-46" y2="-86" stroke="#3B82F6" stroke-width="0.7" stroke-dasharray="4 6"/>
<line x1="0" y1="12" x2="46" y2="-86" stroke="#3B82F6" stroke-width="0.7" stroke-dasharray="4 6"/>

<rect x="-98" y="62" width="40" height="28" rx="5" fill="#10B981"/>
<circle cx="-78" cy="72" r="3" fill="#10B981" opacity="0.5"/>
<rect x="-92" y="78" width="28" height="3" rx="1" fill="#10B981" opacity="0.4"/>
<rect x="-92" y="84" width="18" height="3" rx="1" fill="#10B981" opacity="0.4"/>

<rect x="-20" y="74" width="40" height="28" rx="5" fill="#10B981"/>
<circle cx="0" cy="84" r="3" fill="#10B981" opacity="0.5"/>
<rect x="-14" y="90" width="28" height="3" rx="1" fill="#10B981" opacity="0.4"/>
<rect x="-14" y="96" width="18" height="3" rx="1" fill="#10B981" opacity="0.4"/>

<rect x="58" y="62" width="40" height="28" rx="5" fill="#10B981"/>
<circle cx="78" cy="72" r="3" fill="#10B981" opacity="0.5"/>
<rect x="64" y="78" width="28" height="3" rx="1" fill="#10B981" opacity="0.4"/>
<rect x="64" y="84" width="18" height="3" rx="1" fill="#10B981" opacity="0.4"/>

<rect x="-66" y="-98" width="40" height="24" rx="4" fill="#A855F7"/>
<rect x="-60" y="-92" width="28" height="3" rx="1" fill="#A855F7" opacity="0.4"/>
<rect x="-60" y="-85" width="18" height="3" rx="1" fill="#A855F7" opacity="0.4"/>

<rect x="26" y="-98" width="40" height="24" rx="4" fill="#06B6D4"/>
<rect x="32" y="-92" width="28" height="3" rx="1" fill="#06B6D4" opacity="0.4"/>
<rect x="32" y="-85" width="18" height="3" rx="1" fill="#06B6D4" opacity="0.4"/>

<circle cx="-120" cy="30" r="3.5" fill="#3B82F6"/>
<circle cx="120" cy="30" r="3.5" fill="#3B82F6"/>
<circle cx="-108" cy="-48" r="2.5" fill="#A855F7"/>
<circle cx="108" cy="-48" r="2.5" fill="#A855F7"/>
<circle cx="-92" cy="110" r="3" fill="#10B981"/>
<circle cx="92" cy="110" r="3" fill="#10B981"/>
</g>

<text x="200" y="320" text-anchor="middle" font-family="Segoe UI,system-ui,sans-serif" font-size="24" font-weight="600" fill="#3B82F6" letter-spacing="2">NextGen</text>
<text x="200" y="346" text-anchor="middle" font-family="Segoe UI,system-ui,sans-serif" font-size="11" font-weight="400" fill="#6366F1" letter-spacing="4">CONTROLLER  &amp;  AGENT SERVICE</text>
<line x1="80" y1="362" x2="320" y2="362" stroke="#3B82F6" stroke-width="0.5"/>
<text x="200" y="378" text-anchor="middle" font-family="Segoe UI,system-ui,sans-serif" font-size="9" fill="#3B82F6" letter-spacing="3">DISTRIBUTED TEST EXECUTION PLATFORM</text>

</g>
</svg>
